# xmcd
#
# Track frame offsets:
# 151
# 21894
# 39783
# 59926
# 80273
# 100482
# 117393
# 137732
# 153091
#
# Disc length: 2263 seconds
#
# Revision: 0
# Processed by: cddbd v1.5PL3 Copyright (c) Steve Scherf et al.
# Submitted via: MacMP3 Pro 5.0 (http://mp3.act2.co.jp/)
#
DISCID=7108d509
DTITLE=posyring - posyring
DYEAR=1900
DGENRE=
TTITLE0=infair
TTITLE1=fortunebaby
TTITLE2=time
TTITLE3=a birthday
TTITLE4=Û^«<sum>«»Ò¢Û‡
TTITLE5=miss
TTITLE6=it'a a miracle
TTITLE7=brite
TTITLE8=white
EXTD=
EXTT0=
EXTT1=
EXTT2=
EXTT3=
EXTT4=
EXTT5=
EXTT6=
EXTT7=
EXTT8=
PLAYORDER=
